Coordinates
version=1
nRows=47
nColumns=21
inDegrees=no
endheader
time	ra_wr_s_p	ra_wr_e_f	ra_cmc1_ad_ab	ra_cmc1_f_e	ra_mcp1_f_e	ra_ip1_f_e	ra_mcp2_e_f	ra_pip2_e_f	ra_dip2_e_f	ra_mcp3_e_f	ra_pip3_e_f	ra_dip3_e_f	ra_mcp4_e_f	ra_pip4_e_f	ra_dip4_e_f	ra_mcp5_e_f	ra_pip5_e_f	ra_dip5_e_f	ra_el_e_f	ra_wr_ad_ab
0.125000	0.000000	0.087300	0.467097	0.405603	-0.365029	-0.730057	0.730057	0.973409	0.730057	0.730057	0.973409	0.730057	0.730057	0.973409	0.730057	0.730057	0.973409	0.730057	0.000000	0.085000
0.126000	0.000000	0.087300	0.467742	0.404958	-0.364449	-0.728897	0.728897	0.971863	0.728897	0.728897	0.971863	0.728897	0.728897	0.971863	0.728897	0.728897	0.971863	0.728897	0.000000	0.085000
0.127000	0.000000	0.087300	0.468396	0.404304	-0.363860	-0.727720	0.727720	0.970294	0.727720	0.727720	0.970294	0.727720	0.727720	0.970294	0.727720	0.727720	0.970294	0.727720	0.000000	0.085000
0.128000	0.000000	0.087300	0.469059	0.403641	-0.363263	-0.726526	0.726526	0.968701	0.726526	0.726526	0.968701	0.726526	0.726526	0.968701	0.726526	0.726526	0.968701	0.726526	0.000000	0.085000
0.129000	0.000000	0.087300	0.469732	0.402968	-0.362657	-0.725315	0.725315	0.967086	0.725315	0.725315	0.967086	0.725315	0.725315	0.967086	0.725315	0.725315	0.967086	0.725315	0.000000	0.085000
0.130000	0.000000	0.087300	0.470415	0.402285	-0.362043	-0.724086	0.724086	0.965447	0.724086	0.724086	0.965447	0.724086	0.724086	0.965447	0.724086	0.724086	0.965447	0.724086	0.000000	0.085000
0.131000	0.000000	0.087300	0.471107	0.401593	-0.361419	-0.722839	0.722839	0.963785	0.722839	0.722839	0.963785	0.722839	0.722839	0.963785	0.722839	0.722839	0.963785	0.722839	0.000000	0.085000
0.132000	0.000000	0.087300	0.471810	0.400890	-0.360787	-0.721574	0.721574	0.962099	0.721574	0.721574	0.962099	0.721574	0.721574	0.962099	0.721574	0.721574	0.962099	0.721574	0.000000	0.085000
0.133000	0.000000	0.087300	0.472523	0.400177	-0.360146	-0.720292	0.720292	0.960389	0.720292	0.720292	0.960389	0.720292	0.720292	0.960389	0.720292	0.720292	0.960389	0.720292	0.000000	0.085000
0.134000	0.000000	0.087300	0.473245	0.399455	-0.359496	-0.718991	0.718991	0.958655	0.718991	0.718991	0.958655	0.718991	0.718991	0.958655	0.718991	0.718991	0.958655	0.718991	0.000000	0.085000
0.135000	0.000000	0.087300	0.473978	0.398722	-0.358836	-0.717672	0.717672	0.956896	0.717672	0.717672	0.956896	0.717672	0.717672	0.956896	0.717672	0.717672	0.956896	0.717672	0.000000	0.085000
0.136000	0.000000	0.087300	0.474721	0.397979	-0.358167	-0.716335	0.716335	0.955113	0.716335	0.716335	0.955113	0.716335	0.716335	0.955113	0.716335	0.716335	0.955113	0.716335	0.000000	0.085000
0.137000	0.000000	0.087300	0.475474	0.397226	-0.357489	-0.714979	0.714979	0.953305	0.714979	0.714979	0.953305	0.714979	0.714979	0.953305	0.714979	0.714979	0.953305	0.714979	0.000000	0.085000
0.138000	0.000000	0.087300	0.476238	0.396462	-0.356802	-0.713604	0.713604	0.951472	0.713604	0.713604	0.951472	0.713604	0.713604	0.951472	0.713604	0.713604	0.951472	0.713604	0.000000	0.085000
0.139000	0.000000	0.087300	0.477012	0.395688	-0.356105	-0.712210	0.712210	0.949614	0.712210	0.712210	0.949614	0.712210	0.712210	0.949614	0.712210	0.712210	0.949614	0.712210	0.000000	0.085000
0.140000	0.000000	0.087300	0.477797	0.394903	-0.355399	-0.710798	0.710798	0.947730	0.710798	0.710798	0.947730	0.710798	0.710798	0.947730	0.710798	0.710798	0.947730	0.710798	0.000000	0.085000
0.141000	0.000000	0.087300	0.478593	0.394107	-0.354683	-0.709366	0.709366	0.945821	0.709366	0.709366	0.945821	0.709366	0.709366	0.945821	0.709366	0.709366	0.945821	0.709366	0.000000	0.085000
0.142000	0.000000	0.087300	0.479399	0.393301	-0.353957	-0.707914	0.707914	0.943886	0.707914	0.707914	0.943886	0.707914	0.707914	0.943886	0.707914	0.707914	0.943886	0.707914	0.000000	0.085000
0.143000	0.000000	0.087300	0.480216	0.392484	-0.353222	-0.706443	0.706443	0.941924	0.706443	0.706443	0.941924	0.706443	0.706443	0.941924	0.706443	0.706443	0.941924	0.706443	0.000000	0.085000
0.144000	0.000000	0.087300	0.481045	0.391655	-0.352476	-0.704953	0.704953	0.939937	0.704953	0.704953	0.939937	0.704953	0.704953	0.939937	0.704953	0.704953	0.939937	0.704953	0.000000	0.085000
0.145000	0.000000	0.087300	0.481884	0.390816	-0.351721	-0.703442	0.703442	0.937923	0.703442	0.703442	0.937923	0.703442	0.703442	0.937923	0.703442	0.703442	0.937923	0.703442	0.000000	0.085000
0.146000	0.000000	0.087300	0.482734	0.389966	-0.350956	-0.701912	0.701912	0.935883	0.701912	0.701912	0.935883	0.701912	0.701912	0.935883	0.701912	0.701912	0.935883	0.701912	0.000000	0.085000
0.147000	0.000000	0.087300	0.483595	0.389105	-0.350181	-0.700362	0.700362	0.933815	0.700362	0.700362	0.933815	0.700362	0.700362	0.933815	0.700362	0.700362	0.933815	0.700362	0.000000	0.085000
0.148000	0.000000	0.087300	0.484468	0.388232	-0.349395	-0.698791	0.698791	0.931721	0.698791	0.698791	0.931721	0.698791	0.698791	0.931721	0.698791	0.698791	0.931721	0.698791	0.000000	0.085000
0.149000	0.000000	0.087300	0.485352	0.387348	-0.348600	-0.697200	0.697200	0.929600	0.697200	0.697200	0.929600	0.697200	0.697200	0.929600	0.697200	0.697200	0.929600	0.697200	0.000000	0.085000
0.150000	0.000000	0.087300	0.486247	0.386453	-0.347794	-0.695588	0.695588	0.927451	0.695588	0.695588	0.927451	0.695588	0.695588	0.927451	0.695588	0.695588	0.927451	0.695588	0.000000	0.085000
0.151000	0.000000	0.087300	0.487154	0.385546	-0.346978	-0.693956	0.693956	0.925275	0.693956	0.693956	0.925275	0.693956	0.693956	0.925275	0.693956	0.693956	0.925275	0.693956	0.000000	0.085000
0.152000	0.000000	0.087300	0.488073	0.384627	-0.346151	-0.692303	0.692303	0.923071	0.692303	0.692303	0.923071	0.692303	0.692303	0.923071	0.692303	0.692303	0.923071	0.692303	0.000000	0.085000
0.153000	0.000000	0.087300	0.489003	0.383697	-0.345315	-0.690629	0.690629	0.920839	0.690629	0.690629	0.920839	0.690629	0.690629	0.920839	0.690629	0.690629	0.920839	0.690629	0.000000	0.085000
0.154000	0.000000	0.087300	0.489944	0.382756	-0.344467	-0.688934	0.688934	0.918579	0.688934	0.688934	0.918579	0.688934	0.688934	0.918579	0.688934	0.688934	0.918579	0.688934	0.000000	0.085000
0.155000	0.000000	0.087300	0.490898	0.381802	-0.343609	-0.687218	0.687218	0.916290	0.687218	0.687218	0.916290	0.687218	0.687218	0.916290	0.687218	0.687218	0.916290	0.687218	0.000000	0.085000
0.156000	0.000000	0.087300	0.491863	0.380837	-0.342740	-0.685480	0.685480	0.913974	0.685480	0.685480	0.913974	0.685480	0.685480	0.913974	0.685480	0.685480	0.913974	0.685480	0.000000	0.085000
0.157000	0.000000	0.087300	0.492840	0.379860	-0.341861	-0.683721	0.683721	0.911629	0.683721	0.683721	0.911629	0.683721	0.683721	0.911629	0.683721	0.683721	0.911629	0.683721	0.000000	0.085000
0.158000	0.000000	0.087300	0.493829	0.378871	-0.340970	-0.681941	0.681941	0.909255	0.681941	0.681941	0.909255	0.681941	0.681941	0.909255	0.681941	0.681941	0.909255	0.681941	0.000000	0.085000
0.159000	0.000000	0.087300	0.494831	0.377869	-0.340069	-0.680139	0.680139	0.906852	0.680139	0.680139	0.906852	0.680139	0.680139	0.906852	0.680139	0.680139	0.906852	0.680139	0.000000	0.085000
0.160000	0.000000	0.087300	0.495844	0.376856	-0.339158	-0.678315	0.678315	0.904420	0.678315	0.678315	0.904420	0.678315	0.678315	0.904420	0.678315	0.678315	0.904420	0.678315	0.000000	0.085000
0.161000	0.000000	0.087300	0.496869	0.375831	-0.338235	-0.676469	0.676469	0.901959	0.676469	0.676469	0.901959	0.676469	0.676469	0.901959	0.676469	0.676469	0.901959	0.676469	0.000000	0.085000
0.162000	0.000000	0.087300	0.497907	0.374793	-0.337301	-0.674602	0.674602	0.899469	0.674602	0.674602	0.899469	0.674602	0.674602	0.899469	0.674602	0.674602	0.899469	0.674602	0.000000	0.085000
0.163000	0.000000	0.087300	0.498957	0.373743	-0.336356	-0.672712	0.672712	0.896949	0.672712	0.672712	0.896949	0.672712	0.672712	0.896949	0.672712	0.672712	0.896949	0.672712	0.000000	0.085000
0.164000	0.000000	0.087300	0.500019	0.372681	-0.335400	-0.670800	0.670800	0.894400	0.670800	0.670800	0.894400	0.670800	0.670800	0.894400	0.670800	0.670800	0.894400	0.670800	0.000000	0.085000
0.165000	0.000000	0.087300	0.501094	0.371606	-0.334433	-0.668866	0.668866	0.891821	0.668866	0.668866	0.891821	0.668866	0.668866	0.891821	0.668866	0.668866	0.891821	0.668866	0.000000	0.085000
0.166000	0.000000	0.087300	0.502181	0.370519	-0.333455	-0.666909	0.666909	0.889212	0.666909	0.666909	0.889212	0.666909	0.666909	0.889212	0.666909	0.666909	0.889212	0.666909	0.000000	0.085000
0.167000	0.000000	0.087300	0.503280	0.369420	-0.332465	-0.664930	0.664930	0.886574	0.664930	0.664930	0.886574	0.664930	0.664930	0.886574	0.664930	0.664930	0.886574	0.664930	0.000000	0.085000
0.168000	0.000000	0.087300	0.504392	0.368308	-0.331464	-0.662929	0.662929	0.883905	0.662929	0.662929	0.883905	0.662929	0.662929	0.883905	0.662929	0.662929	0.883905	0.662929	0.000000	0.085000
0.169000	0.000000	0.087300	0.505517	0.367183	-0.330452	-0.660905	0.660905	0.881206	0.660905	0.660905	0.881206	0.660905	0.660905	0.881206	0.660905	0.660905	0.881206	0.660905	0.000000	0.085000
0.170000	0.000000	0.087300	0.506654	0.366046	-0.329429	-0.658858	0.658858	0.878477	0.658858	0.658858	0.878477	0.658858	0.658858	0.878477	0.658858	0.658858	0.878477	0.658858	0.000000	0.085000
0.171000	0.000000	0.087300	0.507803	0.364897	-0.328394	-0.656789	0.656789	0.875718	0.656789	0.656789	0.875718	0.656789	0.656789	0.875718	0.656789	0.656789	0.875718	0.656789	0.000000	0.085000
